<svg version="1.1" xmlns="http://www.w3.org/2000/svg" fill="none" width="2149" height="597">
  <style>
      path { fill: currentColor; }
      @media (prefers-color-scheme: dark) {
          path { 
            fill: currentColor;
          }
      }
  </style>

  <path d="M0 0 C9.53836019 10.96199604 14.02418571 23.8965471 13.73046875 38.34375 C12.45525881 54.22409876 5.0338728 65.93719358 -6.64453125 76.39453125 C-9.82377775 78.67529505 -12.88622496 80.01623737 -16.51953125 81.45703125 C-18.53606343 82.47684237 -20.5350909 83.52345115 -22.52734375 84.58984375 C-32.53527495 88.94623733 -46.63253254 87.2517037 -56.5859375 83.72265625 C-69.35860389 78.21221163 -79.24830318 69.92418626 -85.03515625 57.09765625 C-90.74456272 42.59445132 -91.55517194 28.19071966 -85.30078125 13.6171875 C-78.61034852 0.36641378 -68.39042146 -8.93849066 -54.39453125 -13.91796875 C-34.5530212 -19.80445255 -14.61899526 -14.75498591 0 0 Z " transform="translate(331.51953125,16.54296875)"/>
  <path d="M0 0 C0.33 0.66 0.66 1.32 1 2 C0.35675781 2.3309668 -0.28648437 2.66193359 -0.94921875 3.00292969 C-15.63740868 10.61417789 -28.8557179 18.76331614 -41.6796875 29.17578125 C-48.2966314 34.31885758 -55.38226049 37.65902653 -62.94995117 41.14892578 C-89.27826628 53.41411902 -113.10551415 73.25613684 -131 96 C-131.44327637 96.5455957 -131.88655273 97.09119141 -132.34326172 97.65332031 C-144.13688798 112.19318255 -153.77184513 128.72940488 -161 146 C-161.33 146 -161.66 146 -162 146 C-161.88501733 143.79112243 -161.75756495 141.58289213 -161.625 139.375 C-161.55539062 138.14523438 -161.48578125 136.91546875 -161.4140625 135.6484375 C-161.01492026 132.13146721 -160.13189613 129.33543536 -159 126 C-158.59269779 123.38847404 -158.23176103 120.81026138 -157.9375 118.1875 C-157.12781049 111.12781049 -157.12781049 111.12781049 -156 110 C-155.6901735 108.21466315 -155.42950169 106.42078822 -155.1875 104.625 C-154.32462046 98.79090399 -153.26045763 93.02450796 -152.0625 87.25 C-151.90483154 86.47092285 -151.74716309 85.6918457 -151.5847168 84.88916016 C-150.58968649 80.16787852 -149.28894443 75.66180187 -147.71166992 71.10302734 C-146.71767033 68.16569887 -145.92779284 65.18198833 -145.125 62.1875 C-143.24557021 55.53776177 -140.83894571 49.29345569 -138 43 C-137.69449219 42.27167969 -137.38898438 41.54335937 -137.07421875 40.79296875 C-128.91602257 22.57179932 -108.43093554 14.69387508 -91.01220703 7.82275391 C-88.44550577 6.77327766 -85.98026123 5.55071387 -83.5 4.3125 C-76.46854554 1.06888788 -68.9190912 -0.58175359 -61.42236328 -2.40039062 C-59.12445271 -2.96919413 -56.84198661 -3.57893963 -54.55859375 -4.203125 C-37.14579228 -8.84309288 -16.21855985 -9.08386459 0 0 Z " transform="translate(460,89)"/>
  <path d="M0 0 C-0.395053 5.7941107 -2.29871457 10.43374426 -4.6015625 15.73828125 C-6.49155113 20.14649496 -8.17487418 24.62529314 -9.875 29.109375 C-10.72304632 31.28838291 -11.6546279 33.43514577 -12.625 35.5625 C-14.2570831 39.64270775 -15.23056706 43.74225312 -16.24609375 48.01171875 C-17.09038595 51.35826554 -18.17185365 54.56873793 -19.30859375 57.82421875 C-20.29262361 60.92085509 -20.93995735 64.06504764 -21.5703125 67.25 C-22 69 -22 69 -23 70 C-23.3698855 71.82630965 -23.69673464 73.66145374 -24 75.5 C-24.88888889 80.88888889 -24.88888889 80.88888889 -26 82 C-26.28318283 83.39812257 -26.5134386 84.80708911 -26.71875 86.21875 C-26.84636719 87.06824219 -26.97398437 87.91773438 -27.10546875 88.79296875 C-27.23566406 89.68628906 -27.36585938 90.57960938 -27.5 91.5 C-27.75664929 93.26096985 -28.01687544 95.02142337 -28.28125 96.78125 C-28.39533203 97.56564453 -28.50941406 98.35003906 -28.62695312 99.15820312 C-29 101 -29 101 -30 102 C-30.38631457 104.55073979 -30.71623128 107.08639131 -31.0078125 109.6484375 C-31.09755341 110.4167691 -31.18729431 111.18510071 -31.27975464 111.97671509 C-31.46852813 113.60563798 -31.65499474 115.23482959 -31.83935547 116.86425781 C-32.12311508 119.35843207 -32.4185385 121.85103898 -32.71484375 124.34375 C-32.89654737 125.92439725 -33.07755972 127.50512414 -33.2578125 129.0859375 C-33.34733185 129.83289886 -33.4368512 130.57986023 -33.52908325 131.34945679 C-33.89106162 134.63029146 -34.05744714 136.82765859 -33 140 C-33.063544 142.51865303 -33.18678991 144.99072604 -33.375 147.5 C-33.44835571 148.57531982 -33.44835571 148.57531982 -33.52319336 149.67236328 C-33.80847994 153.7467121 -34.16069281 157.81034177 -34.5625 161.875 C-35.52180755 170.37815926 -35.52180755 170.37815926 -34.515625 178.77734375 C-33.72488676 182.18590481 -33.75393301 185.64120788 -33.625 189.125 C-33.17686543 198.5828465 -31.81762794 207.71682721 -30 217 C-29.85691406 217.74781738 -29.71382813 218.49563477 -29.56640625 219.26611328 C-27.36597192 230.57741673 -24.14772569 241.25552162 -20 252 C-19.59910156 253.05703125 -19.19820313 254.1140625 -18.78515625 255.203125 C-16.31983301 261.41208723 -13.34622486 267.28911172 -10.15283203 273.1484375 C-8.0059773 277.08784086 -5.9622879 281.05980328 -3.99389648 285.09130859 C3.90515273 301.25418748 13.61533705 316.57834814 25.9140625 329.76171875 C27.86444383 331.85454366 29.71631367 334.00298541 31.5625 336.1875 C35.06809726 340.19617841 38.93151144 343.57676421 43 347 C43.94746094 347.8353125 44.89492188 348.670625 45.87109375 349.53125 C74.37276479 374.51304254 109.86319008 390.26229893 147 397 C147.99620361 397.18111328 148.99240723 397.36222656 150.01879883 397.54882812 C158.40491366 398.86429712 166.67685746 399.21119719 175.15234375 399.4296875 C178.82776464 399.54281917 182.50311376 399.65812477 186.1784668 399.7734375 C188.68228007 399.84108615 191.18663862 399.89092398 193.69116211 399.92285156 C208.66276142 400.13851003 219.96857975 400.75917712 231.38891602 411.15673828 C234 414 234 414 235 417 C231.66964238 418.40553012 228.44460366 419.45939261 224.921875 420.26171875 C223.93775635 420.49020508 222.9536377 420.71869141 221.93969727 420.95410156 C220.88709717 421.19612305 219.83449707 421.43814453 218.75 421.6875 C208.58333196 424.06733102 198.52773008 426.72652845 188.50097656 429.6394043 C177.29283066 432.86664165 166.35130856 434.52164401 154.74365234 435.48754883 C152.39940843 435.68543955 150.05735581 435.90182206 147.71484375 436.11914062 C134.08882569 437.3139965 121.24837978 436.57526276 107.7109375 434.46875 C103.38960581 433.92289758 99.09871842 433.69455147 94.75 433.5 C86.81578482 433.12734612 79.4724084 432.24450858 71.9296875 429.6328125 C66.56603405 427.82273764 61.13189513 426.29598856 55.6875 424.75 C45.31099224 421.76862391 35.13345182 418.38063211 24.98339844 414.70849609 C22.33623828 413.76289555 19.67128977 412.87478339 17 412 C17 411.34 17 410.68 17 410 C16.12988281 409.83564453 16.12988281 409.83564453 15.2421875 409.66796875 C10.40253723 408.6856635 6.34633884 407.45178089 2 405 C2 404.34 2 403.68 2 403 C1.2884375 402.88527344 0.576875 402.77054688 -0.15625 402.65234375 C-3.18836456 401.95679 -5.69110601 400.89199056 -8.5 399.5625 C-11.96615137 397.93165631 -15.42997212 396.39049999 -19 395 C-19 394.34 -19 393.68 -19 393 C-19.9075 392.896875 -20.815 392.79375 -21.75 392.6875 C-25.12126226 391.97434837 -26.38207449 391.11123025 -29 389 C-30.64797236 388.28837557 -32.31165408 387.60968047 -34 387 C-34 386.34 -34 385.68 -34 385 C-34.680625 384.9175 -35.36125 384.835 -36.0625 384.75 C-39.79071997 383.79811405 -42.75901066 381.99750771 -46 380 C-46.73476563 379.56945312 -47.46953125 379.13890625 -48.2265625 378.6953125 C-48.95617187 378.25960938 -49.68578125 377.82390625 -50.4375 377.375 C-51.11683594 376.97023438 -51.79617188 376.56546875 -52.49609375 376.1484375 C-52.99238281 375.76945312 -53.48867187 375.39046875 -54 375 C-54 374.34 -54 373.68 -54 373 C-54.70511719 372.7421875 -55.41023438 372.484375 -56.13671875 372.21875 C-59.24269315 370.89669814 -61.95978065 369.30252146 -64.8125 367.5 C-65.78832031 366.8915625 -66.76414062 366.283125 -67.76953125 365.65625 C-68.50558594 365.1096875 -69.24164063 364.563125 -70 364 C-70 363.34 -70 362.68 -70 362 C-71.32 361.67 -72.64 361.34 -74 361 C-74 360.34 -74 359.68 -74 359 C-75.32 358.67 -76.64 358.34 -78 358 C-78 357.34 -78 356.68 -78 356 C-79.32 355.67 -80.64 355.34 -82 355 C-82 354.34 -82 353.68 -82 353 C-83.32 352.67 -84.64 352.34 -86 352 C-86 351.34 -86 350.68 -86 350 C-86.598125 349.896875 -87.19625 349.79375 -87.8125 349.6875 C-90.31258286 348.90175967 -91.37535082 348.03081147 -93 346 C-93 345.34 -93 344.68 -93 344 C-93.66 344 -94.32 344 -95 344 C-96.625 342.625 -96.625 342.625 -98 341 C-98 340.34 -98 339.68 -98 339 C-98.61875 338.938125 -99.2375 338.87625 -99.875 338.8125 C-100.57625 338.544375 -101.2775 338.27625 -102 338 C-102.70211894 336.34795544 -103.36971413 334.68076231 -104 333 C-104.99 332.67 -105.98 332.34 -107 332 C-107 331.34 -107 330.68 -107 330 C-107.66 330 -108.32 330 -109 330 C-110.7265625 328.3203125 -110.7265625 328.3203125 -112.625 326.125 C-113.25664062 325.40570313 -113.88828125 324.68640625 -114.5390625 323.9453125 C-116 322 -116 322 -116 320 C-116.66 320 -117.32 320 -118 320 C-118.268125 319.401875 -118.53625 318.80375 -118.8125 318.1875 C-119.86831322 315.99556112 -119.86831322 315.99556112 -121.4375 314.5625 C-123.41969955 312.58030045 -124.67469798 310.46127517 -126 308 C-126 307.34 -126 306.68 -126 306 C-126.66 306 -127.32 306 -128 306 C-128.66 303.69 -129.32 301.38 -130 299 C-130.66 299 -131.32 299 -132 299 C-133 296 -134 293 -135 290 C-135.23106445 289.34596191 -135.46212891 288.69192383 -135.70019531 288.01806641 C-137.61849133 282.49235532 -139.00445477 276.98797398 -140.125 271.25 C-140.29749268 270.37964111 -140.46998535 269.50928223 -140.64770508 268.61254883 C-141.79333211 262.61948396 -142.52692936 256.70393413 -142.8515625 250.60546875 C-142.96458848 247.83957602 -142.96458848 247.83957602 -143.5625 244.5 C-144.79667382 234.6266094 -143.83991631 224.80222894 -142.5390625 214.98828125 C-142.38843353 213.81283249 -142.23780457 212.63738373 -142.08261108 211.42631531 C-141.76553095 208.96963437 -141.44433258 206.51348166 -141.11914062 204.05786133 C-140.62144346 200.28554304 -140.14199896 196.51119536 -139.6640625 192.73632812 C-139.35264498 190.34100485 -139.04018323 187.94581705 -138.7265625 185.55078125 C-138.58376862 184.42070145 -138.44097473 183.29062164 -138.29385376 182.126297 C-138.15385956 181.08728745 -138.01386536 180.04827789 -137.86962891 178.9777832 C-137.74971588 178.06213089 -137.62980286 177.14647858 -137.5062561 176.20307922 C-137 174 -137 174 -135 172 C-134.39161267 169.74064122 -134.39161267 169.74064122 -134 167.1875 C-133.37997167 163.52822564 -132.39205868 160.43374473 -131 157 C-130.35581723 154.73453369 -129.7321781 152.46316337 -129.125 150.1875 C-127.58202889 144.67771136 -125.69194371 140.02496159 -123 135 C-122.4740625 133.4221875 -122.4740625 133.4221875 -121.9375 131.8125 C-120.96471998 128.89415995 -119.58688493 126.62180989 -118 124 C-117.30420546 121.80869466 -117.30420546 121.80869466 -117 120 C-116.34 120 -115.68 120 -115 120 C-114.87625 119.071875 -114.7525 118.14375 -114.625 117.1875 C-114 114 -114 114 -112 111 C-111.34 111 -110.68 111 -110 111 C-109.9175 110.319375 -109.835 109.63875 -109.75 108.9375 C-108.77667472 105.1253093 -107.04192545 102.35929671 -105 99 C-104.34 99 -103.68 99 -103 99 C-103 97.68 -103 96.36 -103 95 C-102.34 95 -101.68 95 -101 95 C-100.72542969 94.26136719 -100.45085937 93.52273437 -100.16796875 92.76171875 C-98.34684562 88.4555848 -95.64717952 84.83509379 -93 81 C-92.40316406 80.09765625 -91.80632812 79.1953125 -91.19140625 78.265625 C-90.59199219 77.37359375 -89.99257812 76.4815625 -89.375 75.5625 C-88.82585937 74.73878906 -88.27671875 73.91507812 -87.7109375 73.06640625 C-85.91528175 70.89768046 -84.51150681 70.16283296 -82 69 C-81.30959426 67.34302621 -80.6469365 65.6744239 -80 64 C-78.46688412 61.80614731 -76.83457887 59.97217229 -75 58 C-74.34 58 -73.68 58 -73 58 C-72.34 56.68 -71.68 55.36 -71 54 C-70.34 54 -69.68 54 -69 54 C-68.835 53.319375 -68.67 52.63875 -68.5 51.9375 C-66.6207705 48.25734223 -64.17451675 46.31776297 -61.0234375 43.70703125 C-58.80926244 41.90093062 -58.80926244 41.90093062 -56.3125 39.1875 C-53.92360043 36.92773013 -52.01532818 36.17262763 -49 35 C-48.67 34.01 -48.34 33.02 -48 32 C-46.546875 30.53515625 -46.546875 30.53515625 -44.75 29.0625 C-44.11835938 28.54171875 -43.48671875 28.0209375 -42.8359375 27.484375 C-42.23007812 26.99453125 -41.62421875 26.5046875 -41 26 C-40.13375 25.278125 -39.2675 24.55625 -38.375 23.8125 C-36 22 -36 22 -33.375 20.4375 C-31.04658851 19.16938769 -31.04658851 19.16938769 -29.67773438 17.61547852 C-27.56626121 15.582356 -25.29368112 14.22452543 -22.78125 12.71484375 C-21.76675781 12.10189453 -20.75226563 11.48894531 -19.70703125 10.85742188 C-18.64871094 10.22384766 -17.59039062 9.59027344 -16.5 8.9375 C-14.40597447 7.67623858 -12.31221254 6.4145394 -10.21875 5.15234375 C-9.28998047 4.59538818 -8.36121094 4.03843262 -7.40429688 3.46459961 C-1.71678613 0 -1.71678613 0 0 0 Z " transform="translate(309,123)"/>
  <path d="M0 0 C0 90.42 0 180.84 0 274 C-44 279 -44 279 -48 279 C-48 188.91 -48 98.82 -48 6 C-5 0 -5 0 0 0 Z " transform="translate(535,166)"/>
  <path d="M0 0 C10.86361163 1.20706796 21.64231422 2.43362228 32.4375 4.0625 C34.20963867 4.32256836 34.20963867 4.32256836 36.01757812 4.58789062 C44.61066091 5.8702203 44.61066091 5.8702203 48 7 C48 33.07 48 59.14 48 86 C63.18 81.05 78.36 76.1 94 71 C96.76174271 73.76174271 97.97415477 75.57701565 99.67655945 78.99235535 C100.19394684 80.02300613 100.71133423 81.05365692 101.24440002 82.11553955 C101.80400925 83.24554382 102.36361847 84.3755481 102.94018555 85.53979492 C103.54109004 86.74245034 104.14252348 87.94484159 104.7444458 89.14698792 C106.3756341 92.40850379 107.99939618 95.67366658 109.62185645 98.93953109 C111.31919858 102.35296903 113.02333777 105.76300995 114.72676086 109.17341614 C117.95078832 115.63079533 121.16868566 122.0912091 124.38439542 128.55273372 C128.04592251 135.9093199 131.71426497 143.26249984 135.38318574 150.61540067 C142.92971724 165.73982137 150.46767273 180.86850041 158 196 C160.90728566 189.6904507 163.73955539 183.37408952 166.29882812 176.9152832 C166.59079071 176.18479263 166.8827533 175.45430206 167.18356323 174.70167542 C168.1352125 172.31900166 169.08321515 169.93489515 170.03125 167.55078125 C170.71015169 165.84944074 171.38931602 164.14820502 172.06872559 162.44706726 C173.85457647 157.97392379 175.6374786 153.49961146 177.41955566 149.02496338 C179.18727397 144.58709369 180.95680443 140.14994721 182.7265625 135.71289062 C183.07300308 134.84420286 183.41944366 133.9755151 183.77638245 133.08050346 C186.5216561 126.1984219 189.27373932 119.31907649 192.02818298 112.44066048 C193.99505188 107.52527082 195.94857211 102.60484578 197.89105988 97.67977238 C199.08706868 94.65257647 200.29183872 91.62892125 201.498703 88.60603905 C202.05740351 87.20072406 202.61217316 85.79383927 203.16279602 84.38533974 C203.91288777 82.46778157 204.67634042 80.55610072 205.44335938 78.64526367 C205.86725952 77.57281906 206.29115967 76.50037445 206.72790527 75.39543152 C208 73 208 73 211 72 C213.25895691 72.44920349 213.25895691 72.44920349 215.93041992 73.26342773 C216.93123093 73.56381454 217.93204193 73.86420135 218.96318054 74.1736908 C220.04138565 74.50695877 221.11959076 74.84022675 222.23046875 75.18359375 C223.33602615 75.51794937 224.44158356 75.85230499 225.5806427 76.1967926 C229.11879308 77.2688917 232.65312042 78.35304177 236.1875 79.4375 C238.58244066 80.16550891 240.97762017 80.89273259 243.37304688 81.61914062 C249.25150196 83.40365076 255.12686141 85.19807449 261 87 C259.12008982 92.97070179 256.93986292 98.67527154 254.33203125 104.36328125 C253.98049484 105.13995651 253.62895844 105.91663177 253.26676941 106.71684265 C252.512201 108.38281724 251.75566335 110.04790109 250.99731445 111.7121582 C248.9542803 116.19605615 246.92578983 120.68653998 244.89453125 125.17578125 C244.48067169 126.08925323 244.06681213 127.00272522 243.64041138 127.94387817 C239.71637068 136.60989741 235.85264871 145.30206794 232 154 C225.99986337 167.53562828 219.9393627 181.04328923 213.85449219 194.54101562 C208.53404868 206.34503973 203.24848484 218.16381251 198 230 C192.39336965 242.64279527 186.74381252 255.26558832 181.0625 267.875 C175.39536976 280.45516789 169.73059004 293.03634191 164.09036255 305.62860107 C163.36833177 307.24031265 162.64590473 308.85184678 161.92306519 310.4631958 C158.50139685 318.09223067 155.09763287 325.72563265 151.8203125 333.41796875 C151.12421875 335.04883423 151.12421875 335.04883423 150.4140625 336.71264648 C149.58522554 338.66559356 148.76424362 340.62190309 147.953125 342.58227539 C147.59992188 343.41621826 147.24671875 344.25016113 146.8828125 345.109375 C146.58777832 345.82061523 146.29274414 346.53185547 145.98876953 347.26464844 C145 349 145 349 142 351 C139.74104309 350.86087036 139.74104309 350.86087036 137.06958008 350.30908203 C135.56836357 350.00854416 135.56836357 350.00854416 134.03681946 349.70193481 C132.95861435 349.47287445 131.88040924 349.24381409 130.76953125 349.0078125 C129.11119514 348.67062698 129.11119514 348.67062698 127.4193573 348.32662964 C123.88122674 347.60442447 120.34696128 346.86493267 116.8125 346.125 C114.4175518 345.63297377 112.02237191 345.14207381 109.62695312 344.65234375 C103.74854912 343.44796247 97.87322769 342.22936123 92 341 C93.45120514 336.34744888 95.29743423 331.96162845 97.3515625 327.55078125 C97.68286163 326.83253677 98.01416077 326.1142923 98.35549927 325.37428284 C99.44253022 323.01904911 100.5338141 320.66581119 101.625 318.3125 C102.77277348 315.82780383 103.91940381 313.342582 105.06604004 310.85736084 C105.85464894 309.1484081 106.64363433 307.43962905 107.4329834 305.73101807 C111.56288377 296.79007277 115.65844532 287.83354159 119.75 278.875 C120.72835246 276.73422591 121.70677998 274.59348762 122.68606567 272.45314026 C123.29197412 271.12527854 123.89531362 269.79624098 124.49581909 268.46592712 C125.8192697 265.53943196 127.17868579 262.64744331 128.63085938 259.78222656 C131.36289724 254.57880942 131.36289724 254.57880942 131.625 248.88671875 C131.08875 247.93410156 130.5525 246.98148438 130 246 C129.66355469 245.35627441 129.32710937 244.71254883 128.98046875 244.04931641 C127.69638354 241.61159444 126.35112113 239.2136967 125 236.8125 C119.45393647 226.81298895 114.2004135 216.68210915 109 206.5 C104.11171317 196.93606481 99.20557183 187.3964983 94 178 C88.79439391 168.60343986 83.88954548 159.0633405 79 149.5 C73.11454603 137.99024067 67.13672022 126.55111392 60.87109375 115.2421875 C56.83415003 107.87133243 52.93210622 100.42731175 49 93 C48.505 183.09 48.505 183.09 48 275 C34.20873619 275 34.20873619 275 27.390625 274.34375 C26.65293884 274.27716187 25.91525269 274.21057373 25.1552124 274.14196777 C22.85298007 273.93301334 20.551517 273.71667609 18.25 273.5 C16.66671196 273.35497341 15.08337877 273.21043885 13.5 273.06640625 C9.66600857 272.71749699 5.83314932 272.3585574 2 272 C1.67 265.73 1.34 259.46 1 253 C-1.289375 254.98 -1.289375 254.98 -3.625 257 C-22.38719828 272.25928146 -44.2097383 278.71242295 -68.3671875 276.72265625 C-87.26554845 274.47285138 -103.56226664 267.49978257 -118 255 C-118.74765625 254.39671875 -119.4953125 253.7934375 -120.265625 253.171875 C-136.10354385 239.99206841 -146.82222337 220.03349016 -152.6875 200.5625 C-152.89012451 199.89500732 -153.09274902 199.22751465 -153.30151367 198.53979492 C-156.52837076 187.31377855 -157.34114674 176.33526635 -157.3125 164.6875 C-157.32861328 163.38876953 -157.34472656 162.09003906 -157.36132812 160.75195312 C-157.37572228 131.80531181 -145.12159524 106.27558883 -125.25 85.75 C-107.45518473 68.07034289 -84.30087881 60.72475846 -59.61889648 60.75341797 C-36.25737599 61.03448777 -18.71463513 69.63240348 0 83 C0 55.61 0 28.22 0 0 Z M-91 125 C-104.15652836 139.99803311 -109.3896176 157.02448342 -108.21582031 176.77636719 C-106.52268911 194.22098142 -97.65523136 208.92961195 -84.4921875 220.1796875 C-72.02083004 229.28886082 -58.99364535 231.26023495 -44 230 C-29.2383493 227.31328798 -16.91283859 218.96859388 -8.3125 206.8125 C1.77407583 191.93528036 6.52864842 173.84377851 3.34375 155.984375 C0.13205858 140.43098226 -8.03454503 127.49590909 -21.43359375 118.640625 C-44.01906375 104.65218481 -71.75355311 105.92668457 -91 125 Z " transform="translate(1887,168)"/>
  <path d="M0 0 C118.56213018 0 118.56213018 0 143 21 C143.61617187 21.51949219 144.23234375 22.03898437 144.8671875 22.57421875 C156.42424075 33.14599327 164.21537515 49.49947086 165.12304688 65.1171875 C165.81665096 85.48546368 162.76699543 104.07393108 149 120 C144.10205233 124.93229513 139.17770231 129.71645124 133 133 C132.34 133 131.68 133 131 133 C133.37505925 135.67194166 135.81345582 137.04099112 139 138.625 C154.78192377 147.08928144 165.20217979 159.73894414 171.2578125 176.4765625 C177.27167934 196.78913372 175.69260608 219.5900112 165.64453125 238.3125 C163.08697763 242.49206506 160.14832703 246.25507219 157 250 C156.40058594 250.79792969 155.80117187 251.59585938 155.18359375 252.41796875 C143.29944776 266.47059934 127.53013948 272.24354154 110 276 C73.7 276 37.4 276 0 276 C0 184.92 0 93.84 0 0 Z M48 48 C47.97473437 55.81452752 47.95716895 63.62904458 47.94506836 71.44360352 C47.94002617 74.10441481 47.93319264 76.76522332 47.92456055 79.42602539 C47.91248991 83.24105516 47.90677071 87.05604844 47.90234375 90.87109375 C47.89718246 92.06899033 47.89202118 93.2668869 47.88670349 94.50108337 C47.88662796 95.6021492 47.88655243 96.70321503 47.88647461 97.83764648 C47.884254 98.81249496 47.88203339 99.78734344 47.87974548 100.79173279 C47.75218415 102.97472116 47.75218415 102.97472116 49 104 C53.11099911 104.24454794 57.2258442 104.22863397 61.34350586 104.24023438 C63.39805553 104.24981605 65.45155022 104.28076173 67.50585938 104.3125 C79.77286961 104.36053528 87.92221236 103.09334816 96.8671875 94.38671875 C102.83019415 87.71383035 105.27881479 79.29192034 104.8828125 70.35546875 C103.81090021 63.23490857 100.72134725 57.91332564 95.0390625 53.46484375 C88.52246948 49.18286788 82.55401234 47.69513777 74.7578125 47.8046875 C73.98944061 47.8075174 73.22106873 47.81034729 72.42941284 47.81326294 C69.99444479 47.82438689 67.55985538 47.8494764 65.125 47.875 C63.46615118 47.88503989 61.80729654 47.89416397 60.1484375 47.90234375 C56.09881421 47.92430063 52.04947113 47.95877594 48 48 Z M48 167 C48 187.79 48 208.58 48 230 C54.55875 230.0825 61.1175 230.165 67.875 230.25 C69.92444824 230.28641602 71.97389648 230.32283203 74.08544922 230.36035156 C87.89316875 230.50640973 96.5935146 229.08937158 106.8671875 219.234375 C112.63131118 213.19576924 115.01606464 207.16105202 115.375 198.75 C115.15211542 190.18654 112.76145846 183.41778037 106.875 177.125 C100.47506745 171.22225229 92.73542837 166.85843219 83.87402344 166.88647461 C83.06239746 166.88659546 82.25077148 166.88671631 81.41455078 166.88684082 C80.57134277 166.89195679 79.72813477 166.89707275 78.859375 166.90234375 C78.0770752 166.90335083 77.29477539 166.90435791 76.48876953 166.90539551 C73.57583137 166.91061431 70.66291416 166.92457557 67.75 166.9375 C61.2325 166.958125 54.715 166.97875 48 167 Z " transform="translate(1363,170)"/>
  <path d="M0 0 C2.30275556 1.8670991 3.67823871 3.35647741 5 6 C5.69093988 13.02455546 5.69093988 13.02455546 2.875 17 C0 19 0 19 -2.9375 19.625 C-7.11489446 18.77247052 -9.07706865 17.05888164 -12 14 C-13.58172058 10.46438929 -13.01496681 9.04647589 -11.8125 5.3125 C-10 2 -10 2 -8.1875 0.5625 C-5.25734496 -0.19096844 -3.0152151 -0.37690189 0 0 Z " transform="translate(368,188)"/>
  <path d="M0 0 C3.3401506 2.82057162 6.67097497 5.77716808 7.3359375 10.26953125 C7.42468004 16.04667069 6.96380815 19.46993355 3 24 C-0.717356 26.47823733 -3.69302669 26.53203788 -8 26 C-12.56884617 24.13092657 -14.80794622 21.38410756 -17 17 C-17.86086905 12.147829 -17.49655079 8.91034312 -15.125 4.5625 C-10.42394894 -1.10641451 -7.28903051 -1.7902882 0 0 Z " transform="translate(356,207)"/>
  <path d="M0 0 C1.34699006 0.01509096 2.69399668 0.02877148 4.04101562 0.04101562 C7.29861152 0.07604354 10.55533173 0.12516338 13.8125 0.1875 C11.8498805 7.12271517 9.51292811 13.81053819 6.8359375 20.5 C6.46522125 21.43553711 6.094505 22.37107422 5.71255493 23.33496094 C4.54141524 26.28736517 3.3644476 29.23740698 2.1875 32.1875 C1.3902635 34.19647116 0.59338524 36.20558453 -0.203125 38.21484375 C-3.11921269 45.55868818 -3.11921269 45.55868818 -4.56103516 49.171875 C-4.8517691 49.90116211 -5.14250305 50.63044922 -5.44204712 51.38183594 C-5.97461483 52.67184151 -6.56336175 53.93922351 -7.1875 55.1875 C-8.05532104 55.20151855 -8.05532104 55.20151855 -8.94067383 55.21582031 C-23.89992107 55.51944049 -35.70292302 55.76597268 -46.96875 66.7109375 C-64.33192135 86.09166045 -65.39690938 116.04157797 -65.375 140.6875 C-65.37608765 141.93359543 -65.37608765 141.93359543 -65.37719727 143.2048645 C-65.37526248 163.56247729 -64.34014747 183.86748996 -63.1875 204.1875 C-68.59436575 204.90617277 -74.0020724 205.61801406 -79.41064453 206.32373047 C-81.24780117 206.56439896 -83.08472087 206.80688374 -84.92138672 207.05126953 C-87.57197784 207.40362701 -90.22337195 207.74929341 -92.875 208.09375 C-94.09268066 208.25780334 -94.09268066 208.25780334 -95.33496094 208.4251709 C-96.11516602 208.52527466 -96.89537109 208.62537842 -97.69921875 208.72851562 C-98.37428467 208.81734009 -99.04935059 208.90616455 -99.74487305 208.99768066 C-103.21585882 209.26741494 -106.70604933 209.1875 -110.1875 209.1875 C-110.1875 143.1875 -110.1875 77.1875 -110.1875 9.1875 C-90.3433689 5.68559451 -90.3433689 5.68559451 -81.5 4.5 C-80.57767578 4.37044922 -79.65535156 4.24089844 -78.70507812 4.10742188 C-77.80853516 3.98560547 -76.91199219 3.86378906 -75.98828125 3.73828125 C-75.20622314 3.63169189 -74.42416504 3.52510254 -73.6184082 3.4152832 C-70.81934134 3.15300246 -67.99882824 3.1875 -65.1875 3.1875 C-65.1875 13.4175 -65.1875 23.6475 -65.1875 34.1875 C-64.5275 34.1875 -63.8675 34.1875 -63.1875 34.1875 C-62.95804688 33.64480469 -62.72859375 33.10210937 -62.4921875 32.54296875 C-54.25867479 17.67827365 -37.03237581 6.49868186 -21.265625 1.53515625 C-14.20550847 -0.32298942 -7.25327643 -0.14122705 0 0 Z " transform="translate(1248.1875,232.8125)"/>
  <path d="M0 0 C28.32368722 -0.868159 53.57950701 10.61748417 73.93652344 29.69848633 C84.18789994 39.63570774 93.53298801 52.38706054 97.9140625 66.125 C97.76806641 68.10205078 97.76806641 68.10205078 96.9140625 70.125 C94.8581543 71.6862793 94.8581543 71.6862793 92.11328125 73.19921875 C91.08750977 73.77559082 90.06173828 74.35196289 89.00488281 74.94580078 C87.88178711 75.56181152 86.75869141 76.17782227 85.6015625 76.8125 C83.21106196 78.15086895 80.82630398 79.49933469 78.44140625 80.84765625 C77.82314972 81.19572327 77.20489319 81.54379028 76.56790161 81.90240479 C69.84166599 85.7017188 63.25163975 89.71662448 56.6640625 93.75 C54.30013948 95.19379188 51.93538934 96.63622409 49.5703125 98.078125 C48.99906143 98.42650925 48.42781036 98.77489349 47.83924866 99.13383484 C42.64019551 102.3003585 37.40953596 105.41114702 32.1640625 108.5 C31.30449951 109.00619873 30.44493652 109.51239746 29.55932617 110.03393555 C27.71849399 111.1176311 25.87758908 112.20120313 24.03662109 113.28466797 C12.94944799 119.81907851 1.88562209 126.39288629 -9.16864014 132.98278809 C-11.03235533 134.09307892 -12.89715676 135.20152396 -14.76220703 136.30957031 C-18.04240804 138.25954451 -21.31476863 140.22240698 -24.5859375 142.1875 C-26.04567993 143.05362915 -26.04567993 143.05362915 -27.53491211 143.93725586 C-28.84407593 144.72821655 -28.84407593 144.72821655 -30.1796875 145.53515625 C-30.93958984 145.99027588 -31.69949219 146.44539551 -32.48242188 146.91430664 C-33.27616211 147.51359985 -33.27616211 147.51359985 -34.0859375 148.125 C-34.0859375 148.785 -34.0859375 149.445 -34.0859375 150.125 C-27.8648077 155.48245885 -20.67753994 159.13669919 -13.0859375 162.125 C-12.30863281 162.434375 -11.53132812 162.74375 -10.73046875 163.0625 C10.19298136 170.35241226 31.23944716 163.2584786 50.3515625 154.1875 C55.07378572 151.75874399 59.12290834 148.87136122 63.171875 145.4453125 C64.9140625 144.125 64.9140625 144.125 66.9140625 144.125 C68.39094501 147.9979897 69.86584722 151.87172664 71.33911133 155.74609375 C71.8379493 157.05716068 72.33727857 158.36804081 72.8371582 159.67871094 C74.29870804 163.51141565 75.74855247 167.34824295 77.18597412 171.19006348 C77.67738219 172.49600853 78.17330304 173.80026315 78.67340088 175.10290527 C79.40556039 177.01029713 80.12392305 178.92240174 80.83984375 180.8359375 C81.47466675 182.5072876 81.47466675 182.5072876 82.12231445 184.21240234 C82.91259458 187.11959999 83.11584022 188.40177324 81.9140625 191.125 C64.3534662 205.75314721 36.67901496 214.29389856 13.9140625 215.125 C12.87507812 215.16496094 11.83609375 215.20492187 10.765625 215.24609375 C-20.25154598 215.83855657 -46.00960314 205.45991615 -68.71484375 184.42578125 C-87.67711008 166.02582265 -97.96688617 143.05666448 -98.5078125 116.73632812 C-98.5578828 104.96354951 -98.16602865 93.52468518 -95.0859375 82.125 C-94.89257812 81.40731445 -94.69921875 80.68962891 -94.5 79.95019531 C-89.6535352 62.6809249 -81.52973756 47.8614132 -70.0859375 34.125 C-69.52648437 33.40183594 -68.96703125 32.67867188 -68.390625 31.93359375 C-54.27800043 14.38146018 -32.09564239 3.72181645 -10.140625 0.72265625 C-6.76261203 0.37920925 -3.38804011 0.20302862 0 0 Z M-40.3984375 69.9375 C-50.00045986 82.61532419 -52.47902976 93.57601743 -52.0859375 109.125 C-48.6945197 108.45486605 -46.07466 107.14953945 -43.0703125 105.45703125 C-42.07902344 104.90080078 -41.08773437 104.34457031 -40.06640625 103.77148438 C-39.00035156 103.16626953 -37.93429687 102.56105469 -36.8359375 101.9375 C-35.72347656 101.31037109 -34.61101563 100.68324219 -33.46484375 100.03710938 C-24.97663675 95.2367166 -16.55000757 90.33358965 -8.14111328 85.39575195 C0.29682044 80.4524632 8.81510097 75.66068679 17.3671875 70.91796875 C23.6254677 67.44022418 29.80006715 63.85079458 35.9140625 60.125 C28.83841377 51.87007649 17.82089205 47.95430827 7.1953125 46.83984375 C-11.6043379 46.21859094 -28.48384912 55.85251222 -40.3984375 69.9375 Z " transform="translate(644.0859375,232.875)"/>
  <path d="M0 0 C1.04360962 2.01261902 1.04360962 2.01261902 1.99853516 4.70776367 C2.54744919 6.22918472 2.54744919 6.22918472 3.10745239 7.78134155 C3.6923494 9.45772202 3.6923494 9.45772202 4.2890625 11.16796875 C4.70517792 12.33018951 5.12129333 13.49241028 5.55001831 14.68984985 C6.44906276 17.2049488 7.34383623 19.72111498 8.23168945 22.24014282 C9.62656444 26.19707081 11.03705339 30.14830304 12.45117188 34.09838867 C12.92817895 35.43122244 13.40516864 36.76406242 13.88214111 38.09690857 C14.11911964 38.75906309 14.35609818 39.42121761 14.60025787 40.10343742 C15.32359624 42.126371 16.04539828 44.14984676 16.76678467 46.17347717 C21.25340454 58.75359796 25.85764901 71.28904286 30.5 83.8125 C31.19360061 85.68836617 31.88712505 87.5642605 32.58056641 89.44018555 C35.98995439 98.65196768 39.43915087 107.84547582 43 117 C46.63210314 110.15792678 49.47131782 103.03808348 52.31228638 95.84146118 C53.84896351 91.94985674 55.39808192 88.063199 56.9453125 84.17578125 C57.27207474 83.3539183 57.59883698 82.53205536 57.9355011 81.68528748 C62.47788747 70.26932959 67.09549658 58.88364006 71.7199707 47.50073242 C72.43187239 45.74791214 73.14370554 43.99506402 73.85546875 42.2421875 C74.20368179 41.38476456 74.55189484 40.52734161 74.91065979 39.64393616 C76.93761421 34.64494483 78.94344313 29.63819288 80.92765808 24.62208557 C82.12441918 21.59792998 83.32881887 18.57684587 84.53390503 15.55599976 C85.09028626 14.15461996 85.64270227 12.75165874 86.19094849 11.34707642 C86.93769709 9.43451483 87.69890543 7.5276174 88.4609375 5.62109375 C89.09201416 4.01899048 89.09201416 4.01899048 89.73583984 2.38452148 C91 0 91 0 94 -1 C96.06240845 -0.67814636 96.06240845 -0.67814636 98.45556641 -0.04370117 C99.35304596 0.190168 100.25052551 0.42403717 101.17520142 0.66499329 C102.14090057 0.92636581 103.10659973 1.18773834 104.1015625 1.45703125 C105.58987076 1.85156746 105.58987076 1.85156746 107.10824585 2.2540741 C109.20575296 2.81247613 111.30213566 3.3751163 113.39746094 3.94165039 C116.61597746 4.81006555 119.83880795 5.66079117 123.0625 6.50976562 C125.09663695 7.05363094 127.13050102 7.59851814 129.1640625 8.14453125 C130.13381012 8.39983109 131.10355774 8.65513092 132.10269165 8.91816711 C132.99386688 9.16149277 133.88504211 9.40481842 134.80322266 9.65551758 C135.98544907 9.97314812 135.98544907 9.97314812 137.19155884 10.29719543 C139 11 139 11 140 13 C139.13119869 15.26300495 138.19779087 17.40063744 137.16015625 19.5859375 C136.8474881 20.26126526 136.53481995 20.93659302 136.212677 21.63238525 C135.52994077 23.10522022 134.84368079 24.57642552 134.15438843 26.04620361 C132.28229366 30.03903605 130.43581839 34.04371546 128.5859375 38.046875 C128.20211411 38.87567169 127.81829071 39.70446838 127.4228363 40.55838013 C123.9153993 48.14579915 120.52416674 55.78195379 117.15426636 63.43121338 C110.70210889 78.07245178 104.04220321 92.60803923 97.28356934 107.11010742 C91.37780413 119.78847379 85.61505802 132.52082291 79.97042847 145.31738281 C73.88379489 159.10803946 67.59979718 172.80261558 61.25366211 186.47558594 C56.89414665 195.87124164 52.56307785 205.27595962 48.45922852 214.78710938 C46.21537028 219.89231486 46.21537028 219.89231486 44 221 C36.19948322 204.56465029 28.53011093 188.08301202 21.1875 171.4375 C15.58274802 158.73224511 9.8469475 146.09562341 4 133.5 C-1.76000005 121.09026999 -7.41595787 108.64264409 -12.9375 96.125 C-18.77585166 82.89167271 -24.77925292 69.74170543 -30.875 56.625 C-31.68714502 54.87494271 -32.49923888 53.12486169 -33.3112793 51.37475586 C-36.67599347 44.1277091 -40.0504506 36.88578138 -43.4609375 29.66015625 C-44.39080451 27.66935467 -45.32051114 25.67847816 -46.25 23.6875 C-46.8685083 22.39996826 -46.8685083 22.39996826 -47.49951172 21.08642578 C-47.8554541 20.31927246 -48.21139648 19.55211914 -48.578125 18.76171875 C-49.03300293 17.802052 -49.03300293 17.802052 -49.49707031 16.82299805 C-50.12107226 14.56114243 -49.62719831 13.22593452 -49 11 C-42.50689693 9.26102503 -36.01044442 7.53503394 -29.51147461 5.81811523 C-27.30006512 5.23225008 -25.08944574 4.64339424 -22.87963867 4.05151367 C-19.70693661 3.20228021 -16.5315677 2.36377022 -13.35546875 1.52734375 C-12.36475876 1.25969711 -11.37404877 0.99205048 -10.35331726 0.71629333 C-8.97222527 0.3558065 -8.97222527 0.3558065 -7.56323242 -0.01196289 C-6.34744759 -0.33506187 -6.34744759 -0.33506187 -5.10710144 -0.66468811 C-3 -1 -3 -1 0 0 Z " transform="translate(790,235)"/>
  <path d="M0 0 C14.47699243 12.4478722 25.50378363 26.32201248 31.8984375 44.4921875 C31.8984375 45.1521875 31.8984375 45.8121875 31.8984375 46.4921875 C29.88433129 47.86608391 27.88571848 49.10131872 25.77734375 50.31640625 C25.13542587 50.69428787 24.493508 51.07216949 23.83213806 51.46150208 C21.71225827 52.70759907 19.58659032 53.94346875 17.4609375 55.1796875 C15.98388576 56.04604144 14.50732699 56.91323635 13.03125 57.78125 C10.04977652 59.53420241 7.06666523 61.284316 4.08251953 63.03271484 C-1.50404295 66.31082487 -7.05425894 69.64810109 -12.6015625 72.9921875 C-22.18504308 78.75645027 -31.79525719 84.4746704 -41.4140625 90.1796875 C-52.48225589 96.74557591 -63.54769145 103.31512821 -74.56494141 109.96630859 C-77.51349621 111.73998208 -80.46992317 113.50024514 -83.42578125 115.26171875 C-85.56790782 116.54654246 -87.70983807 117.83169356 -89.8515625 119.1171875 C-91.3821228 120.02464722 -91.3821228 120.02464722 -92.94360352 120.95043945 C-93.87744873 121.51335693 -94.81129395 122.07627441 -95.7734375 122.65625 C-96.6097168 123.15592285 -97.44599609 123.6555957 -98.30761719 124.17041016 C-98.89961914 124.60659668 -99.49162109 125.0427832 -100.1015625 125.4921875 C-100.1015625 126.1521875 -100.1015625 126.8121875 -100.1015625 127.4921875 C-86.69489145 138.81654581 -70.52918273 144.05720401 -53.1015625 143.4921875 C-35.61260224 141.63893348 -16.28558947 134.18636417 -2.84375 122.8125 C-1.1015625 121.4921875 -1.1015625 121.4921875 0.8984375 121.4921875 C3.21073219 127.53704942 5.50593161 133.58819827 7.78930664 139.64404297 C8.56824991 141.70380335 9.35110869 143.76208739 10.13793945 145.81884766 C11.26763727 148.77388056 12.3831906 151.73392042 13.49609375 154.6953125 C13.8512355 155.61523987 14.20637726 156.53516724 14.57228088 157.48297119 C15.05289223 158.77385651 15.05289223 158.77385651 15.54321289 160.09082031 C15.82967178 160.84582825 16.11613068 161.60083618 16.41127014 162.37872314 C16.97835681 164.83889916 16.8304649 166.15657986 15.8984375 168.4921875 C-8.49856183 187.63869992 -43.65546226 194.97093787 -73.9140625 191.8046875 C-98.43283962 188.60981654 -118.26158837 177.32235177 -136.1015625 160.4921875 C-136.73964844 159.90695312 -137.37773438 159.32171875 -138.03515625 158.71875 C-152.81941807 144.69181117 -163.1202703 122.77646527 -164.27856445 102.37451172 C-164.57396658 86.33335244 -164.53856159 71.04739542 -160.1015625 55.4921875 C-159.7509375 54.26113281 -159.4003125 53.03007812 -159.0390625 51.76171875 C-154.35728553 37.37500827 -146.75338149 24.09403444 -137.1015625 12.4921875 C-136.33199219 11.55890625 -135.56242188 10.625625 -134.76953125 9.6640625 C-100.28173612 -30.22812056 -40.36397483 -31.95942117 0 0 Z M-107.2265625 48 C-114.35176373 57.55145509 -118.30023907 67.88435053 -118.1640625 79.7421875 C-118.15955078 80.48726562 -118.15503906 81.23234375 -118.15039062 82 C-118.13865496 83.8307639 -118.120721 85.66148623 -118.1015625 87.4921875 C-108.16808093 82.3662563 -98.49195871 76.85259066 -88.85229492 71.1953125 C-80.9025819 66.53282518 -72.91955308 61.93292249 -64.9140625 57.3671875 C-64.32867706 57.03323975 -63.74329163 56.69929199 -63.14016724 56.35522461 C-60.24634025 54.70455752 -57.35205366 53.0547004 -54.45751953 51.40527344 C-49.25311882 48.43846971 -44.05239154 45.46524639 -38.8515625 42.4921875 C-37.13803985 41.51298756 -35.42450033 40.53381713 -33.7109375 39.5546875 C-32.6585791 38.95333984 -32.6585791 38.95333984 -31.58496094 38.33984375 C-31.09543945 38.06011719 -30.60591797 37.78039062 -30.1015625 37.4921875 C-38.29385863 28.83672268 -49.65258917 24.50998762 -61.5390625 24.1171875 C-80.15535329 24.7764046 -95.4704726 34.12608508 -107.2265625 48 Z " transform="translate(1090.1015625,255.5078125)"/>
  <path d="M0 0 C5.25659102 3.27297176 8.36556526 8.22169577 10.3125 14.0625 C10.93266815 20.10913949 10.47554008 25.77220409 7.3125 31.0625 C2.66871375 36.35125656 -2.12706734 38.67408916 -9.125 39.4375 C-14.23910984 38.89917265 -17.83709286 37.16089985 -21.203125 33.34375 C-26.00373182 26.83258214 -26.24528213 21.02638934 -25.6875 13.0625 C-24.47229518 7.34691801 -21.28152354 4.34394538 -16.6875 1.0625 C-11.25575005 -2.09498066 -5.9337901 -1.5085907 0 0 Z " transform="translate(344.6875,235.9375)"/>
  <path d="M0 0 C21.76782683 18.36660389 34.91662142 43.60371572 38.4375 71.75 C40.12066229 102.77822615 35.30513213 130.65273945 14.20385742 154.69946289 C-2.93101189 173.52364811 -25.00966509 185.42488588 -50.71484375 186.87109375 C-76.58450123 187.96172012 -99.77344266 180.86015033 -119.02978516 163.19238281 C-138.91497133 144.47914931 -151.19955433 118.74021529 -152.5078125 91.34375 C-152.52585937 90.4878125 -152.54390625 89.631875 -152.5625 88.75 C-152.60117188 87.9146875 -152.63984375 87.079375 -152.6796875 86.21875 C-153.40278253 59.54457773 -145.4807294 32.82957225 -127.5625 12.75 C-126.89992188 11.945625 -126.23734375 11.14125 -125.5546875 10.3125 C-93.61495355 -27.40231499 -37.92977867 -29.71872323 0 0 Z M-94.98046875 42.2578125 C-106.98303839 56.04970995 -111.47192698 72.08127959 -110.3515625 90.15234375 C-108.13819223 107.37904633 -99.94734748 121.72271088 -86.5625 132.75 C-73.48933451 140.8206787 -59.82702825 142.7136495 -44.8203125 140.09765625 C-30.82925143 136.18888259 -18.95770806 127.08124956 -11.1875 114.8125 C-3.05402681 100.18146467 -1.45539668 84.70627973 -5.72851562 68.58374023 C-10.26360557 52.8731656 -19.48070151 40.21108063 -33.5625 31.75 C-54.67722008 20.69776371 -78.76819091 25.44313984 -94.98046875 42.2578125 Z " transform="translate(1689.5625,260.25)"/>
  <path d="M0 0 C6.59662516 1.86058658 12.32976821 5.21984547 18 9 C18 9.66 18 10.32 18 11 C18.56976563 11.23847656 19.13953125 11.47695313 19.7265625 11.72265625 C27.96434765 16.35110255 33.08843841 25.73212201 37 34 C37.45246094 34.92425781 37.90492187 35.84851563 38.37109375 36.80078125 C45.32241755 52.04418862 47.70557482 71.46593165 45 88 C27.94684094 82.48852274 13.68209399 72.19271607 4.53515625 56.484375 C-4.20788404 38.73254852 -4.63430846 20.12654304 -1 1 C-0.67 0.67 -0.34 0.34 0 0 Z " transform="translate(78,276)"/>
  <path d="M0 0 C6.99616146 4.00374388 11.28114889 9.6732271 13.75 17.3125 C14.80354693 25.40483033 14.56375914 32.55106858 9.75 39.3125 C9.028125 40.364375 8.30625 41.41625 7.5625 42.5 C1.64500459 48.41749541 -5.81349495 51.99363997 -14.25 52.3125 C-20.78781527 51.3708834 -25.88357613 48.20099629 -30.25 43.3125 C-34.79484941 35.88924596 -34.96731806 27.81928597 -34.25 19.3125 C-32.43956204 12.42249039 -28.30020503 5.84099612 -22.19140625 2.02734375 C-14.92352886 -1.69327605 -7.7261585 -3.63583929 0 0 Z " transform="translate(338.25,282.6875)"/>
  <path d="M0 0 C29.37 0 58.74 0 89 0 C89 17.16 89 34.32 89 52 C59.63 52 30.26 52 0 52 C0 34.84 0 17.68 0 0 Z " transform="translate(1265,292)"/>
  <path d="M0 0 C3.32889574 2.48170789 6.43716873 5.13029173 9.51171875 7.91796875 C10.04152344 8.39830566 10.57132812 8.87864258 11.1171875 9.37353516 C12.39656341 10.57252475 13.6164057 11.83441941 14.82421875 13.10546875 C14.82421875 13.76546875 14.82421875 14.42546875 14.82421875 15.10546875 C15.48421875 15.10546875 16.14421875 15.10546875 16.82421875 15.10546875 C19.39700826 17.91033979 21.58166206 21.03353675 23.82421875 24.10546875 C24.4275 24.92917969 25.03078125 25.75289063 25.65234375 26.6015625 C28.85397145 31.15714958 28.85397145 31.15714958 29.82421875 33.10546875 C29.49421875 34.09546875 29.16421875 35.08546875 28.82421875 36.10546875 C9.39781201 39.85246798 9.39781201 39.85246798 2.82421875 39.10546875 C1.65890625 38.97398437 0.49359375 38.8425 -0.70703125 38.70703125 C-19.16800595 36.15612658 -33.3634576 26.98218649 -44.98828125 12.60546875 C-57.17578125 -4.00298713 -57.17578125 -4.00298713 -57.17578125 -10.89453125 C-37.23161207 -16.5928653 -17.01185725 -11.25017713 0 0 Z " transform="translate(58.17578125,320.89453125)"/>
  <path d="M0 0 C5.02522071 3.67699076 8.26695964 7.75062738 9.5625 13.875 C10.3503408 20.96556718 9.53003032 26.8510596 5.5625 32.875 C-0.13774728 39.50169831 -6.53497293 42.37643792 -15.125 43.25 C-21.43700267 42.53543366 -25.36125988 39.63061347 -29.4375 34.875 C-32.32238392 28.83288297 -32.44406185 22.54324343 -30.6796875 16.11328125 C-27.97086449 8.97862537 -24.49492286 3.76793642 -17.8515625 -0.17578125 C-12.06334129 -2.45173231 -5.80990411 -1.90142316 0 0 Z " transform="translate(354.4375,336.125)"/>
  <path d="M0 0 C2.11328125 2.16015625 2.11328125 2.16015625 4 5 C4.45294434 5.67530762 4.90588867 6.35061523 5.37255859 7.04638672 C7.00077818 9.49566112 8.59662803 11.96381725 10.1875 14.4375 C10.76483887 15.33057861 11.34217773 16.22365723 11.93701172 17.14379883 C13.62762268 19.76064627 15.31450969 22.37985223 17 25 C17.64557861 26.00256836 17.64557861 26.00256836 18.30419922 27.02539062 C20.12953438 29.86053468 21.95221869 32.69736621 23.7734375 35.53515625 C26.25743802 39.40373644 28.75287798 43.26488038 31.25 47.125 C31.69923828 47.82020752 32.14847656 48.51541504 32.61132812 49.23168945 C35.24552269 53.30409899 37.89383207 57.36682876 40.5546875 61.421875 C41.14862305 62.32921387 41.74255859 63.23655273 42.35449219 64.17138672 C43.51641688 65.94567712 44.68104363 67.71820157 45.84863281 69.48876953 C46.37553711 70.29427246 46.90244141 71.09977539 47.4453125 71.9296875 C47.91469238 72.64366699 48.38407227 73.35764648 48.86767578 74.09326172 C50 76 50 76 51 79 C46.10227544 77.37419931 41.21079882 75.73297529 36.328125 74.0625 C20.87829037 68.75562263 20.87829037 68.75562263 5 65 C3.60974609 64.72542969 3.60974609 64.72542969 2.19140625 64.4453125 C-1.70754185 63.90127323 -5.50602271 63.81597611 -9.4375 63.8125 C-10.16259766 63.80025391 -10.88769531 63.78800781 -11.63476562 63.77539062 C-16.38113684 63.76259717 -20.56125174 64.13134871 -25 66 C-27.96924128 70.86100166 -27.67148156 76.49956594 -27 82 C-25.78790241 86.24822553 -23.99347987 90.06451508 -22 94 C-21.69416992 94.60473145 -21.38833984 95.20946289 -21.07324219 95.83251953 C-13.32791209 110.90565204 -3.2849359 123.98059674 8.375 136.22265625 C10.46176205 138.43052503 12.44223522 140.65954265 14.375 143 C17.08565714 146.09789387 19.80645705 148.41798655 23 151 C24.67083158 152.66249132 26.33701114 154.32966362 28 156 C35.26050099 162.90280595 35.26050099 162.90280595 43.1875 169 C44.5796875 169.99 44.5796875 169.99 46 171 C46 171.66 46 172.32 46 173 C46.680625 173.20625 47.36125 173.4125 48.0625 173.625 C50.65689031 174.83939546 52.03601455 175.79578035 54.109375 177.6640625 C58.27555504 181.30352186 62.69496286 184.52781755 67.1875 187.75 C67.98091797 188.32621094 68.77433594 188.90242187 69.59179688 189.49609375 C72.98112068 191.93777287 76.21250663 194.21303657 80 196 C80 196.66 80 197.32 80 198 C80.804375 198.20625 81.60875 198.4125 82.4375 198.625 C87.05469793 200.40707639 91.16242583 202.86171712 95 206 C95 206.66 95 207.32 95 208 C70.38477524 207.60586976 50.5612105 196.97232146 30.04589844 184.25195312 C28.35772951 183.21890656 26.63940534 182.23531135 24.9140625 181.265625 C24.28242188 180.84796875 23.65078125 180.4303125 23 180 C23 179.34 23 178.68 23 178 C21.68 177.67 20.36 177.34 19 177 C19 176.34 19 175.68 19 175 C18.27425781 174.75636719 17.54851562 174.51273438 16.80078125 174.26171875 C13.65560117 172.84485241 11.69795719 171.16884189 9.1875 168.8125 C8.31480469 168.00425781 7.44210938 167.19601562 6.54296875 166.36328125 C5.70378906 165.58339844 4.86460937 164.80351563 4 164 C2.67210304 162.82714939 1.33920597 161.65992079 0 160.5 C-10.6363628 151.20650465 -21.09348541 141.77185953 -30.2734375 131.00390625 C-32.21741046 128.74766614 -34.23323518 126.56636107 -36.25 124.375 C-41.34211567 118.72958144 -45.99669992 112.78012155 -50.63574219 106.76269531 C-51.93727063 105.08104976 -53.25147665 103.41027626 -54.5703125 101.7421875 C-74.22012308 76.76432886 -101.55077025 39.74159373 -100.9375 6.625 C-99.8219695 -0.70562899 -97.00595397 -5.57325217 -91.1875 -10.1875 C-67.00611079 -27.21226483 -23.06352122 -14.51195454 0 0 Z " transform="translate(142,388)"/>
  <path d="M0 0 C4.69391175 3.73379344 7.23637853 6.26775723 8.046875 12.453125 C8.41040432 19.03704487 6.96386625 23.14256568 2.75 28.1875 C-1.33740922 32.50847546 -6.46180939 34.27583848 -12.25 35.1875 C-17.14534634 35.01736158 -20.33510633 33.90773544 -24.1875 30.875 C-27.55563571 26.4862171 -28.44948702 23.75015597 -28.0625 18.25 C-26.97312335 10.14551656 -23.54861996 6.18883244 -17.6015625 0.82421875 C-12.3859455 -2.80591999 -5.49144347 -3.06253578 0 0 Z " transform="translate(372.25,376.8125)"/>
  <path d="M0 0 C4.09828502 2.91433601 6.17196962 6.26568401 7.8125 11 C8.36177998 15.91892523 7.27257345 19.76673578 4.5625 23.875 C0.86914908 28.45729499 -3.5398625 30.53161425 -9.1875 32 C-14.98455774 32.53676461 -18.99281694 31.41821453 -24.1875 29 C-24.5175 28.01 -24.8475 27.02 -25.1875 26 C-25.8475 26 -26.5075 26 -27.1875 26 C-29.21328132 21.82182603 -29.72687404 18.62320608 -29.1875 14 C-26.77283707 7.96852435 -23.60186174 3.57347875 -18.1875 0 C-11.62704143 -2.67277942 -6.56269037 -2.05888325 0 0 Z " transform="translate(393.1875,409)"/>
  <path d="M0 0 C4.06376418 2.19443266 5.66562998 3.30938993 7.125 7.6875 C7.97809282 12.06729611 7.95935432 15.35211901 5.55078125 19.20703125 C1.91004946 23.4996274 -1.14573938 26.75211051 -6.875 27.6875 C-7.55304688 27.83960938 -8.23109375 27.99171875 -8.9296875 28.1484375 C-15.10013506 29.28004207 -19.61471632 28.07842667 -24.875 24.6875 C-27.3052642 22.2572358 -27.80231199 20.78341154 -28.02734375 17.390625 C-27.83286792 11.81001422 -26.62585536 8.14237933 -22.671875 4.16015625 C-15.85722603 -1.42489301 -8.38145891 -3.31729321 0 0 Z " transform="translate(415.875,436.3125)"/>
  <path d="M0 0 C2.3285206 2.94945943 3.43951123 4.60076402 3.875 8.375 C1.98798964 12.89524754 -0.80697196 16.92811745 -5.125 19.375 C-10.61922192 21.20640731 -16.16222995 21.04093984 -21.625 19.1875 C-24.5725291 17.0505414 -25.38208615 15.92447728 -26.125 12.375 C-26.00957896 6.95021124 -23.90450106 4.15450106 -20.125 0.375 C-13.95819663 -2.70840168 -6.15399793 -3.20007892 0 0 Z " transform="translate(441.125,459.625)"/>
  <path d="M0 0 C3.0625 1.5625 3.0625 1.5625 5 4 C5.3125 7.375 5.3125 7.375 4 11 C-0.18387284 15.72134769 -4.72549983 17.65256114 -10.921875 18.1875 C-13.41282892 17.96275228 -14.92256912 17.39097546 -17 16 C-18.29991614 11.77527256 -18.36538766 9.76000634 -16.4375 5.75 C-11.60291436 0.29559569 -6.99307562 -0.7770084 0 0 Z " transform="translate(458,473)"/>
</svg>
